<?xml version="1.0" standalone="no"?>
<!DOCTYPE svg PUBLIC "-//W3C//DTD SVG 20010904//EN"
 "http://www.w3.org/TR/2001/REC-SVG-20010904/DTD/svg10.dtd">
<svg version="1.0" xmlns="http://www.w3.org/2000/svg"
 width="1962.000000pt" height="1962.000000pt" viewBox="0 0 1962.000000 1962.000000"
 preserveAspectRatio="xMidYMid meet">
<metadata>
Created by potrace 1.14, written by Peter Selinger 2001-2017
</metadata>
<g transform="translate(0.000000,1962.000000) scale(0.100000,-0.100000)"
fill="#000000" stroke="none">
<path d="M0 9810 l0 -9430 9810 0 9810 0 0 9430 0 9430 -9810 0 -9810 0 0
-9430z m10525 6942 c145 -15 215 -27 259 -46 21 -9 48 -16 60 -16 35 0 262
-84 331 -123 11 -6 45 -24 75 -39 80 -42 122 -67 146 -89 11 -10 24 -19 30
-19 5 0 23 -13 41 -28 17 -15 44 -37 60 -49 84 -65 234 -225 303 -323 14 -19
31 -41 38 -48 7 -8 22 -30 33 -51 11 -20 33 -58 49 -86 33 -54 85 -160 120
-240 11 -27 25 -59 30 -70 4 -11 11 -29 14 -40 2 -11 16 -51 30 -90 14 -38 26
-82 26 -96 0 -14 7 -40 16 -57 17 -35 32 -104 43 -207 5 -38 13 -82 19 -97 30
-73 32 -447 32 -5132 0 -4669 -2 -5020 -31 -5101 -6 -16 -15 -61 -19 -100 -13
-104 -27 -172 -44 -207 -9 -17 -16 -46 -16 -64 0 -18 -4 -36 -10 -39 -5 -3
-10 -16 -10 -28 0 -12 -9 -39 -20 -60 -11 -20 -20 -47 -20 -60 0 -13 -4 -27
-9 -33 -5 -5 -20 -39 -35 -76 -35 -90 -114 -239 -167 -317 -24 -35 -49 -71
-54 -81 -48 -82 -225 -269 -347 -369 -53 -43 -70 -55 -158 -115 -52 -36 -245
-131 -325 -161 -38 -14 -78 -30 -87 -36 -10 -5 -27 -9 -38 -9 -11 0 -37 -7
-58 -16 -38 -17 -86 -27 -202 -43 -36 -5 -83 -15 -105 -22 -50 -16 -2310 -25
-2335 -9 -13 8 -16 376 -20 3177 -3 1742 -3 3267 0 3388 3 121 3 230 1 243 -3
18 -10 22 -42 22 -21 0 -41 -4 -44 -10 -3 -5 -33 -10 -65 -10 -32 0 -62 -4
-65 -10 -3 -5 -26 -10 -50 -10 -24 0 -47 -4 -50 -10 -3 -5 -31 -10 -61 -10
-30 0 -54 -4 -54 -10 0 -6 -31 -10 -74 -10 -41 0 -78 -4 -81 -10 -3 -5 -17
-10 -30 -10 -13 0 -27 -4 -30 -10 -3 -5 -33 -10 -65 -10 -32 0 -62 -4 -65 -10
-3 -5 -34 -10 -69 -10 -34 0 -66 -4 -71 -9 -6 -6 -53 -13 -105 -17 -52 -4
-100 -13 -106 -19 -7 -7 -50 -15 -96 -18 -45 -4 -84 -11 -86 -17 -2 -5 -30
-10 -63 -10 -33 0 -67 -4 -77 -9 -22 -11 -129 -31 -170 -31 -17 0 -34 -4 -37
-10 -3 -5 -34 -10 -69 -10 -34 0 -66 -4 -71 -9 -6 -5 -28 -11 -50 -15 -100
-14 -121 -18 -141 -27 -11 -6 -34 -9 -50 -7 l-29 3 -3 2103 c-2 1814 0 2105
12 2118 9 9 35 14 70 14 31 0 64 4 74 9 9 5 55 14 102 20 47 6 86 15 88 21 2
5 37 10 77 10 41 0 77 5 80 10 3 6 25 10 47 10 40 0 103 14 143 31 11 4 49 10
85 13 36 2 106 11 155 20 108 18 138 23 233 38 40 6 75 15 78 19 3 5 32 9 64
9 32 0 62 5 65 10 3 6 37 10 75 10 51 0 79 5 105 20 26 15 54 20 105 20 40 0
70 4 70 10 0 6 27 10 60 10 54 0 73 4 135 31 11 5 47 10 80 11 l60 3 2 1400
c2 770 5 1410 8 1422 3 12 15 24 28 26 46 9 2224 -1 2322 -11z"/>
<path d="M8865 16128 c-3 -13 -4 -486 -3 -1053 l3 -1030 24 -3 c13 -2 28 1 34
7 6 6 39 11 74 11 35 0 63 4 63 10 0 6 31 10 74 10 41 0 78 5 81 10 3 6 21 10
40 10 19 0 36 4 39 8 3 5 29 9 58 10 29 0 54 6 56 11 2 7 34 11 76 11 40 0 77
5 82 10 6 6 44 14 85 17 44 4 80 12 88 21 11 11 31 13 78 9 35 -2 66 -1 69 4
3 5 16 9 30 9 13 0 24 5 24 10 0 6 28 10 64 10 36 0 68 5 71 10 3 6 35 10 71
10 36 0 64 4 64 10 0 6 18 10 40 10 22 0 40 5 40 10 0 6 32 10 75 10 43 0 75
4 75 10 0 6 14 10 30 10 17 0 30 5 30 10 0 6 24 10 54 10 30 0 58 5 61 10 3 6
35 10 70 10 35 0 67 5 70 10 3 6 24 10 45 10 21 0 42 4 45 10 3 5 25 7 51 3
34 -4 49 -2 63 11 14 12 32 16 67 14 l49 -3 3 -2067 c1 -1136 -2 -2084 -6
-2105 -7 -34 -11 -38 -42 -41 -19 -2 -39 -8 -44 -13 -6 -5 -29 -9 -52 -9 -24
0 -46 -4 -49 -10 -3 -5 -40 -10 -80 -10 -56 0 -83 -5 -110 -20 -25 -14 -54
-20 -95 -20 -33 0 -60 -4 -60 -10 0 -6 -28 -10 -64 -10 -36 0 -68 -4 -71 -10
-3 -5 -21 -10 -40 -10 -19 0 -37 -5 -41 -11 -4 -7 -22 -9 -51 -4 -32 5 -51 2
-68 -9 -14 -10 -46 -16 -77 -16 -29 0 -78 -7 -108 -15 -30 -8 -78 -15 -107
-15 -28 0 -55 -4 -58 -10 -3 -5 -26 -10 -50 -10 -24 0 -47 -4 -50 -10 -3 -5
-26 -10 -51 -10 -24 0 -44 -4 -44 -10 0 -6 -31 -10 -74 -10 -41 0 -78 -4 -81
-10 -3 -5 -21 -10 -40 -10 -19 0 -37 -4 -40 -10 -3 -5 -31 -10 -61 -10 -30 0
-54 -4 -54 -10 0 -6 -31 -10 -74 -10 -41 0 -78 -4 -81 -10 -3 -5 -17 -10 -30
-10 -13 0 -27 -4 -30 -10 -3 -5 -33 -10 -65 -10 -32 0 -62 -4 -65 -10 -3 -5
-28 -10 -56 -10 l-49 0 2 -3177 3 -3178 720 -3 c757 -3 804 -1 946 44 26 7 53
14 60 14 27 0 175 70 268 127 239 147 472 458 586 783 40 113 85 287 95 362 5
38 11 72 15 77 3 5 10 56 15 113 6 57 14 137 19 178 13 100 13 9207 0 9315 -5
44 -13 125 -19 180 -5 55 -14 116 -20 135 -5 19 -10 52 -10 72 0 21 -6 55 -14
75 -8 21 -22 72 -31 113 -9 41 -23 89 -30 105 -6 17 -20 55 -30 85 -10 30 -31
81 -47 112 -15 31 -28 61 -28 66 0 5 -7 15 -15 22 -8 7 -15 19 -15 26 0 38
-154 248 -255 347 -65 64 -177 157 -189 157 -3 0 -24 13 -48 28 -59 38 -174
92 -200 92 -7 0 -22 7 -32 15 -11 8 -32 15 -47 15 -16 0 -54 7 -86 15 -48 13
-175 15 -830 15 l-773 0 -5 -22z"/>
</g>
</svg>
